<svg width="300" height="33" viewBox="0 0 300 33" fill="none" xmlns="http://www.w3.org/2000/svg">
<path d="M72.0363 12.4377L70.2769 20.6517C69.3235 25.1635 72.1838 27.9518 76.7315 27.9518H98.8478L99.6177 24.4295H78.2354C75.4471 24.4295 73.8712 22.7421 74.4936 19.7702L75.9256 13.1681C76.4761 10.5992 78.2354 8.43686 81.9017 8.43686H102.989L103.723 4.9541H81.5707C76.8754 4.9541 73.0257 7.81443 72.0363 12.4341" fill="white"/>
<path d="M134.971 19.7741C134.312 22.8179 132.402 24.4334 129.175 24.4334H112.707C109.919 24.4334 108.343 22.746 108.965 19.7741L112.121 4.95801H108.087L104.749 20.6556C103.795 25.1674 106.655 27.9557 111.203 27.9557H129.175C133.83 27.9557 137.756 25.2033 138.709 20.6556L142.048 4.95801H138.087L134.971 19.7741Z" fill="white"/>
<path d="M146.118 10.4554L145.751 12.1788C145.092 15.2946 147.143 17.1295 150.446 17.4245L171.792 19.2954C173.149 19.4429 173.994 20.3604 173.735 21.4218L173.587 22.1557C173.292 23.5481 172.084 24.4296 170.065 24.4296H143.768L143.034 27.952H170.101C173.584 27.952 176.851 25.786 177.509 22.6343L177.84 20.9828C178.499 18.011 176.851 16.1041 173.767 15.8486L151.91 13.9058C150.442 13.7583 149.636 12.8048 149.928 11.524L150.111 10.6821C150.331 9.65667 151.396 8.44418 153.339 8.44418H178.938L179.707 4.96143H153.558C149.964 4.96143 146.844 7.08778 146.114 10.4626" fill="white"/>
<path d="M216.715 4.9541H183.193L182.42 8.44046H197.204L193.095 27.9518H197.164L201.309 8.44046H215.945L216.715 4.9541Z" fill="white"/>
<path d="M247.629 13.1717L246.236 19.7738C245.578 22.8176 243.743 24.4331 240.515 24.4331H224.048C221.26 24.4331 219.684 22.7457 220.306 19.7738L221.734 13.1717C222.285 10.6028 224.044 8.44046 227.714 8.44046H243.631C247.078 8.44046 248.291 10.2358 247.629 13.1717ZM245.466 4.9541H227.383C222.688 4.9541 218.838 7.81443 217.849 12.4341L216.089 20.6481C215.136 25.1599 217.996 27.9482 222.544 27.9482H240.515C245.175 27.9482 249.096 25.1958 250.089 20.6481L251.813 12.4341C252.802 7.73887 250.018 4.9541 245.466 4.9541Z" fill="white"/>
<path d="M276.124 19.8458L262.48 4.9541H258.627L253.752 27.9518H257.674L261.527 9.68533L274.033 23.3285H277.113L294.973 9.98036L291.159 27.9518H295.121L299.999 4.9541H296.11L276.124 19.8458Z" fill="white"/>
<path d="M4.39989 24.5737L5.83185 17.9716C6.38232 15.4027 8.14169 13.2403 11.8079 13.2403H32.8952L33.6292 9.75757H11.4805C6.78529 9.75757 2.93554 12.6179 1.94612 17.2376L0.183157 25.4516C-0.770284 29.9633 2.09004 32.7481 6.63777 32.7481H28.754L29.524 29.2258H8.14169C5.35333 29.2258 3.77745 27.5383 4.39989 24.5665" fill="white"/>
<path d="M44.6818 0H22.5656L21.7956 3.52234H43.1779C45.9663 3.52234 47.5421 5.20975 46.9197 8.1816L45.4877 14.7837C44.9373 17.3526 43.1779 19.515 39.5116 19.515H18.4244L17.6904 22.9977H39.8426C44.5379 22.9977 48.3876 20.1374 49.3771 15.5141L51.1364 7.30012C52.0899 2.78837 49.2295 0.00359789 44.6818 0.00359789" fill="white"/>
</svg>
